<?xml version="1.0" encoding="UTF-8" standalone="no"?>
<!-- Created with Inkscape (http://www.inkscape.org/) -->

<svg
   width="205"
   height="205"
   viewBox="0 0 54.239582 54.239583"
   version="1.2" baseProfile="tiny"
   id="svg1"
   xml:space="preserve"
   xmlns="http://www.w3.org/2000/svg"
   xmlns:svg="http://www.w3.org/2000/svg"><defs
     id="defs1" /><g
     id="layer1"><g
       id="g12"><path
         style="fill:#f6bf23"
         d="m 2.42084,34.404272 c -0.40265,-0.0609 -0.66351,-0.22161 -0.5797,-0.35723 0.0922,-0.14926 9.07382,-0.24657 22.75866,-0.24657 19.91806,0 22.60625,0.0472 22.60625,0.39687 0,0.34992 -2.60616,0.39219 -22.02656,0.35723 -12.11461,-0.0218 -22.356,-0.0894 -22.75865,-0.1503 z m 32.37069,-2.61023 c 0.0127,-0.30822 0.0754,-0.37092 0.15985,-0.15985 0.0764,0.191 0.067,0.4192 -0.0209,0.50712 -0.0879,0.0879 -0.15045,-0.0683 -0.13896,-0.34727 z m 2.75723,0.15434 c 0.0899,-0.14552 0.21603,-0.26458 0.2802,-0.26458 0.0642,0 0.11668,0.11906 0.11668,0.26458 0,0.14552 -0.12609,0.26459 -0.2802,0.26459 -0.15411,0 -0.20661,-0.11907 -0.11668,-0.26459 z m 0.66337,-0.52916 c -0.005,-0.30499 -0.38485,-0.40597 -1.6416,-0.43615 -1.25595,-0.0302 -1.71851,-0.15294 -1.99362,-0.52917 -0.19702,-0.26944 -0.41262,-0.46013 -0.47912,-0.42375 -0.0665,0.0364 -0.2995,0.0662 -0.51778,0.0662 -0.59481,0 -0.47795,-0.6763 0.19844,-1.14843 0.32742,-0.22855 1.19063,-0.95499 1.91823,-1.61432 l 1.32292,-1.19877 0.081,0.85628 c 0.10071,1.06526 0.66748,1.51774 1.90107,1.51774 1.18342,0 1.58985,-0.3844 1.58985,-1.50367 0,-0.77663 -0.14017,-0.93969 -1.32292,-1.53904 -1.27602,-0.64661 -1.6811,-0.99768 -0.99218,-0.85989 0.1819,0.0364 0.29973,-0.0864 0.26184,-0.2728 -0.0507,-0.24955 0.15044,-0.22552 0.76272,0.0911 0.68622,0.35486 0.871,0.36786 1.05702,0.0743 0.40641,-0.64125 0.27537,-1.27857 -0.2295,-1.11616 -0.30477,0.098 -0.35476,0.0702 -0.14626,-0.0814 0.20839,-0.15155 0.23241,-0.36377 0.0702,-0.62027 -0.13561,-0.21444 -0.24839,-0.46287 -0.25062,-0.55207 -0.002,-0.0892 0.88863,-0.61529 1.97968,-1.16908 2.23018,-1.13198 2.86825,-1.69957 2.62455,-2.33464 -0.25477,-0.66394 -0.59468,-0.51946 -0.6881,0.29246 -0.0498,0.43317 -0.24433,0.72761 -0.4806,0.72761 -0.29234,0 -0.39687,-0.3051 -0.39687,-1.15843 0,-0.90157 0.12963,-1.24448 0.58462,-1.54653 0.53466,-0.35493 0.6364,-0.33433 1.19062,0.24109 0.33331,0.34605 0.9632,0.85079 1.39976,1.12166 l 0.79375,0.49248 -0.60967,-0.6658 c -0.51583,-0.56333 -0.54637,-0.69009 -0.19843,-0.8236 0.25012,-0.096 0.41122,-0.48066 0.41122,-0.98191 0,-1.05955 0.63301,-0.91575 0.73272,0.16644 0.0392,0.42534 0.18814,1.27306 0.33101,1.88383 0.20069,0.85796 0.15926,1.45961 -0.1822,2.64583 -0.24308,0.84445 -0.44423,1.95207 -0.447,2.4614 -0.005,0.90666 1.46708,5.30101 2.03848,6.08541 0.15901,0.21828 -0.0274,0.11513 -0.41419,-0.22924 -0.38681,-0.34436 -1.14107,-1.51211 -1.67614,-2.59501 -0.86538,-1.75139 -1.00896,-1.91605 -1.29975,-1.49055 -0.1798,0.26309 -0.40404,1.05935 -0.49831,1.76946 -0.0943,0.71011 -0.41806,1.6902 -0.71952,2.17799 -0.30147,0.48778 -0.4732,1.0081 -0.38162,1.15628 0.0916,0.14817 0.0404,0.26941 -0.11369,0.26941 -0.15411,0 -0.2802,0.23812 -0.2802,0.52916 0,0.29104 -0.11906,0.52917 -0.26459,0.52917 -0.14552,0 -0.26458,-0.17859 -0.26458,-0.39688 0,-0.48042 -0.61303,-0.51421 -1.3199,-0.0728 -0.38925,0.2431 -0.59456,0.24852 -0.82138,0.0217 -0.35503,-0.35503 -2.12865,-0.14206 -2.41873,0.29043 -0.12556,0.1872 -0.19658,0.14929 -0.20058,-0.10706 z m 6.72079,-8.2412 c -0.2557,-0.41374 0.97402,-2.60266 1.47386,-2.62349 0.22132,-0.009 0.11196,-0.13279 -0.24303,-0.2746 -0.83276,-0.33265 -1.953,-0.0811 -2.54314,0.57095 -0.25593,0.28279 -0.60029,0.51417 -0.76524,0.51417 -0.16496,0 -0.75943,0.23427 -1.32105,0.5206 -0.56161,0.28632 -1.1212,0.45873 -1.24353,0.38313 -0.12233,-0.0756 -0.15035,0.0504 -0.0623,0.27991 0.12116,0.31574 0.24646,0.34574 0.51457,0.12323 0.26856,-0.22289 0.6788,-0.11759 1.69346,0.43465 0.73647,0.40084 1.47278,0.88995 1.63625,1.08691 0.2445,0.29461 0.36371,0.26317 0.67222,-0.17729 0.20626,-0.29447 0.29081,-0.67165 0.18789,-0.83817 z m 2.27313,-3.66505 c -0.15576,-0.29104 -0.47079,-0.52917 -0.70007,-0.52917 -0.30903,0 -0.25529,0.13462 0.20774,0.52036 0.78929,0.65755 0.84001,0.65845 0.49233,0.009 z m -2.64583,10.84791 c 0.51815,-0.33485 0.86841,-0.33485 0.66146,0 -0.0899,0.14552 -0.36485,0.26276 -0.61093,0.26053 -0.38557,-0.003 -0.39255,-0.0395 -0.0505,-0.26053 z m -17.85937,-4.15741 c 0.87843,-0.21129 1.11295,-0.60575 0.46143,-0.77612 -0.32327,-0.0845 -0.51776,-0.26699 -0.43219,-0.40545 0.0885,-0.14316 0.35952,-0.0672 0.62842,0.17618 0.43985,0.39805 0.51186,0.37831 1.03207,-0.28303 0.30757,-0.39102 0.55923,-0.8338 0.55923,-0.98395 0,-0.15014 0.0683,-0.20468 0.1518,-0.12119 0.2413,0.2413 -0.62036,1.71602 -1.2675,2.16929 -0.32425,0.22711 -0.83095,0.39912 -1.12599,0.38224 -0.53025,-0.0303 -0.53034,-0.0322 -0.007,-0.15797 z m 1.05833,-2.45717 c -0.20695,-0.33486 0.14331,-0.33486 0.66146,0 0.34202,0.22103 0.33504,0.25704 -0.0505,0.26053 -0.24608,0.002 -0.52099,-0.11501 -0.61093,-0.26053 z m 16.64044,-7.56226 c 0.0883,-0.23019 0.1606,-0.46831 0.1606,-0.52917 0,-0.0609 0.1796,-0.11065 0.39912,-0.11065 0.33288,0 0.34428,0.0878 0.0687,0.52916 -0.39218,0.62797 -0.85838,0.71007 -0.62837,0.11066 z"
         id="path12" /><path
         style="fill:#4192ed"
         d="m 47.47064,34.228202 c 0,-0.3186 0.25315,-0.4267 0.99219,-0.42368 0.5457,0.002 1.17078,0.11947 1.38906,0.26053 0.30521,0.19724 0.21355,0.25825 -0.39688,0.26414 -0.43656,0.004 -1.06164,0.0795 -1.38906,0.16721 -0.43766,0.11728 -0.59531,0.0463 -0.59531,-0.2682 z m -40.5952,-7.17461 c 0.0872,-0.29104 0.34965,-1.42213 0.58312,-2.51354 0.25108,-1.17369 0.67432,-2.28992 1.036,-2.73228 0.61563,-0.75296 0.74821,-1.71727 0.36944,-2.68701 -0.19304,-0.49419 -0.25309,-0.47627 -1.03974,0.31038 -0.69566,0.69566 -0.83487,1.03856 -0.83487,2.05639 0,0.68786 -0.22482,1.66221 -0.51461,2.23024 -0.28742,0.56338 -0.44901,1.2596 -0.36602,1.57696 0.17757,0.67905 -0.30428,0.76721 -0.57507,0.10522 -0.10417,-0.25467 -0.19725,-1.56435 -0.20685,-2.91042 -0.0111,-1.55582 -0.12109,-2.44887 -0.30193,-2.45145 -0.15646,-0.002 -0.10589,-0.11947 0.1124,-0.26053 0.30036,-0.19411 0.18398,-0.25747 -0.47864,-0.26053 -0.54216,-0.003 -0.81027,-0.10961 -0.70416,-0.2813 0.0942,-0.15248 0.42868,-0.24178 0.74321,-0.19843 0.487,0.0671 0.58407,-0.0685 0.65399,-0.91339 0.0565,-0.68207 -0.0262,-0.99345 -0.26458,-0.99623 -0.25238,-0.003 -0.23873,-0.0738 0.0502,-0.26054 0.21828,-0.14106 1.73632,-0.2583 3.37343,-0.26053 l 2.97657,-0.004 v 0.97896 c 0,1.13377 0.42692,0.9084 0.60145,-0.3175 l 0.11301,-0.79375 0.0396,0.85989 c 0.0499,1.08135 0.56881,1.1417 0.56881,0.0662 0,-0.61736 0.11759,-0.79375 0.52917,-0.79375 0.43382,0 0.52917,0.17639 0.52917,0.97896 0,1.13377 0.42692,0.9084 0.60145,-0.3175 0.0968,-0.68016 0.11868,-0.64419 0.15265,0.25135 0.0448,1.18007 0.46051,1.01707 0.6411,-0.25135 0.10039,-0.70512 0.11744,-0.68122 0.15265,0.21405 0.0476,1.20896 0.56881,1.07124 0.56881,-0.15029 0,-0.58108 0.0837,-0.74738 0.27816,-0.55289 0.1945,0.19449 0.17512,0.60833 -0.0644,1.37583 l -0.34258,1.09767 h -2.84599 c -2.62837,0 -2.846,0.0388 -2.846,0.50712 0,0.27892 -0.14883,0.55709 -0.33073,0.61816 -0.25799,0.0866 -0.24764,0.26702 0.0471,0.8202 0.2772,0.52033 0.65465,0.75343 1.41756,0.87542 l 1.03977,0.16627 -0.82225,0.34573 c -0.79069,0.33246 -0.92949,0.56672 -0.84701,1.4296 0.0286,0.29953 -0.0318,0.28331 -0.24638,-0.0661 -0.38113,-0.62068 -0.78719,-0.58656 -0.78719,0.0661 0,0.29104 -0.14883,0.53099 -0.33073,0.53322 -0.22048,0.003 -0.19843,0.0895 0.0661,0.26053 0.31172,0.20146 0.31897,0.25735 0.0337,0.26054 -0.28905,0.003 -0.29744,0.0832 -0.0411,0.39203 0.17709,0.21338 0.2606,0.54081 0.18557,0.7276 -0.0911,0.2269 -0.14335,0.1967 -0.1573,-0.091 -0.0115,-0.23684 -0.19152,-0.57223 -0.40006,-0.74531 -0.30246,-0.25102 -0.50319,-0.19218 -0.99219,0.29083 -0.33716,0.33302 -0.76364,0.90654 -0.94774,1.27447 -0.18409,0.36793 -0.26334,0.43084 -0.1761,0.1398 z m 1.62269,-0.22048 c -0.0745,-0.19403 0.0205,-0.35278 0.21105,-0.35278 0.19053,0 0.28551,0.15875 0.21105,0.35278 -0.0744,0.19402 -0.16943,0.35277 -0.21105,0.35277 -0.0416,0 -0.13659,-0.15875 -0.21105,-0.35277 z m 3.67789,-1.98438 c -0.075,-0.12127 0.0319,-0.22049 0.23733,-0.22049 0.20548,0 0.31227,0.0992 0.23733,0.22049 -0.075,0.12127 -0.18175,0.22049 -0.23733,0.22049 -0.0556,0 -0.16239,-0.0992 -0.23733,-0.22049 z m -0.62887,-0.72638 c 0.2512,-0.26227 0.51367,-0.41989 0.58328,-0.35029 0.0696,0.0696 -0.13592,0.28419 -0.45672,0.47684 -0.55729,0.33468 -0.56293,0.32904 -0.12656,-0.12655 z m -6.98862,-1.61512 c 0.191,-0.0764 0.4192,-0.067 0.50712,0.0209 0.0879,0.0879 -0.0683,0.15046 -0.34727,0.13897 -0.30822,-0.0127 -0.37092,-0.0754 -0.15985,-0.15985 z m 14.09341,-5.79444 c 0.0127,-0.30822 0.0754,-0.37092 0.15986,-0.15985 0.0764,0.191 0.067,0.4192 -0.0209,0.50712 -0.0879,0.0879 -0.15045,-0.0683 -0.13897,-0.34727 z"
         id="path11" /><path
         style="fill:#bb3c9a"
         d="m 2.79209,38.020572 c -0.0198,-0.37108 -0.12533,-0.78865 -0.23447,-0.92793 -0.10914,-0.13929 -0.0393,-0.1188 0.15513,0.0455 0.19446,0.16432 0.29997,0.58188 0.23447,0.92793 -0.11789,0.62275 -0.11947,0.62229 -0.15513,-0.0455 z m 0.53278,-0.0205 c -0.0218,-0.38236 0.13895,-0.84343 0.35723,-1.02458 0.2742,-0.22757 0.39687,-0.23759 0.39687,-0.0324 0,0.16334 -0.11115,0.29698 -0.24701,0.29698 -0.13585,0 -0.29661,0.32742 -0.35723,0.7276 l -0.11022,0.72761 z m 1.08541,-0.36313 c 0.003,-0.58208 0.0571,-0.78905 0.12041,-0.45993 0.0633,0.32912 0.0609,0.80537 -0.005,1.05833 -0.0662,0.25297 -0.11801,-0.0163 -0.11507,-0.5984 z m 0.48333,0.50712 c 0.0127,-0.30822 0.0754,-0.37092 0.15985,-0.15985 0.0764,0.191 0.067,0.4192 -0.0209,0.50712 -0.0879,0.0879 -0.15045,-0.0683 -0.13896,-0.34727 z m 2.82338,0.23654 c -0.25466,-0.0666 -0.46302,-0.22018 -0.46302,-0.34141 0,-0.12123 0.23813,-0.15814 0.52917,-0.082 0.29104,0.0761 0.52917,0.24355 0.52917,0.3721 0,0.12855 -0.0298,0.21991 -0.0662,0.20303 -0.0364,-0.0169 -0.27451,-0.0851 -0.52917,-0.15169 z m 2.24954,-0.74366 c 0.003,-0.58208 0.0571,-0.78905 0.12041,-0.45993 0.0633,0.32912 0.0609,0.80537 -0.005,1.05833 -0.0662,0.25297 -0.11801,-0.0163 -0.11507,-0.5984 z m 1.85208,0 c 0.003,-0.58208 0.0571,-0.78905 0.12041,-0.45993 0.0633,0.32912 0.0609,0.80537 -0.005,1.05833 -0.0662,0.25297 -0.118,-0.0163 -0.11507,-0.5984 z m 0.52917,0 c 0.003,-0.58208 0.0571,-0.78905 0.12041,-0.45993 0.0633,0.32912 0.0609,0.80537 -0.005,1.05833 -0.0662,0.25297 -0.11801,-0.0163 -0.11507,-0.5984 z m 0.99161,0.52917 c 0,-0.21828 0.11532,-0.39687 0.25628,-0.39687 0.14095,0 0.18774,0.17859 0.10398,0.39687 -0.0838,0.21828 -0.19909,0.39688 -0.25628,0.39688 -0.0572,0 -0.10398,-0.1786 -0.10398,-0.39688 z m 1.91881,-0.52917 c 0.003,-0.58208 0.0571,-0.78905 0.1204,-0.45993 0.0633,0.32912 0.0609,0.80537 -0.005,1.05833 -0.0662,0.25297 -0.118,-0.0163 -0.11506,-0.5984 z m 5.29166,0 c 0.003,-0.58208 0.0571,-0.78905 0.12041,-0.45993 0.0633,0.32912 0.0609,0.80537 -0.005,1.05833 -0.0662,0.25297 -0.118,-0.0163 -0.11507,-0.5984 z m 0.46245,0.67708 c 0,-0.13693 0.11769,-0.32171 0.26155,-0.41062 0.14998,-0.0927 0.19434,0.0135 0.10398,0.24897 -0.17589,0.45837 -0.36553,0.54223 -0.36553,0.16165 z m 1.07922,-0.16996 c 0.0127,-0.30822 0.0754,-0.37092 0.15985,-0.15985 0.0764,0.191 0.067,0.4192 -0.0209,0.50712 -0.0879,0.0879 -0.15045,-0.0683 -0.13896,-0.34727 z m 1.07347,-0.17639 c -0.0198,-0.40018 -0.15509,-0.7276 -0.30061,-0.7276 -0.14552,0 -0.26458,-0.14458 -0.26458,-0.32128 0,-0.21062 0.14456,-0.17671 0.41971,0.0984 0.2415,0.24151 0.36914,0.68687 0.30061,1.04889 -0.11007,0.5815 -0.12183,0.57404 -0.15513,-0.0984 z m 0.49314,-0.0505 c 0,-0.35521 0.0975,-0.70611 0.21671,-0.77977 0.11919,-0.0737 0.1652,0.21696 0.10226,0.64584 -0.13878,0.94559 -0.31897,1.02125 -0.31897,0.13393 z m 1.88998,0.41028 c -0.25024,-0.15856 -0.27028,-0.28227 -0.0661,-0.40843 0.16106,-0.0995 0.29284,-0.0479 0.29284,0.11483 0,0.1627 0.13745,0.21086 0.30546,0.10703 0.18926,-0.11697 0.23364,-0.0726 0.11668,0.11667 -0.22297,0.36076 -0.19462,0.35771 -0.64883,0.0699 z m 3.16237,-0.0134 c -0.24321,-0.15031 -0.25915,-0.26795 -0.0535,-0.39503 0.16106,-0.0995 0.29466,-0.0251 0.29689,0.16536 0.003,0.25167 0.0742,0.23786 0.26053,-0.0505 0.15411,-0.23847 0.2581,-0.2711 0.26053,-0.0818 0.006,0.44338 -0.35576,0.61453 -0.76443,0.36196 z m 1.6686,-0.53533 c 0.0158,-0.40846 0.18118,-0.67091 0.4228,-0.67091 0.24162,0 0.40701,0.26245 0.42279,0.67091 0.018,0.46461 -0.11205,0.6709 -0.42279,0.6709 -0.31074,0 -0.44075,-0.20629 -0.4228,-0.6709 z m 0.68738,-0.14175 c 0,-0.21828 -0.11906,-0.39687 -0.26458,-0.39687 -0.14552,0 -0.26458,0.17859 -0.26458,0.39687 0,0.21829 0.11906,0.39688 0.26458,0.39688 0.14552,0 0.26458,-0.17859 0.26458,-0.39688 z m 2.04874,0.62871 c -0.64345,-0.36009 -0.50846,-1.46979 0.17268,-1.41961 0.28957,0.0213 0.57714,0.19074 0.63905,0.37646 0.0788,0.23636 -0.0556,0.28431 -0.44791,0.1598 -0.41489,-0.13168 -0.56047,-0.0655 -0.56047,0.25464 0,0.31213 0.1473,0.38579 0.52916,0.26459 0.29104,-0.0924 0.52917,-0.0479 0.52917,0.0988 0,0.42566 -0.37099,0.53987 -0.86168,0.26527 z m 2.5159,-0.62871 c 0.003,-0.58208 0.0571,-0.78905 0.12041,-0.45993 0.0633,0.32912 0.0609,0.80537 -0.005,1.05833 -0.0662,0.25297 -0.118,-0.0163 -0.11507,-0.5984 z m 4.45208,0.50712 c 0.0127,-0.30822 0.0754,-0.37092 0.15986,-0.15985 0.0764,0.191 0.067,0.4192 -0.0209,0.50712 -0.0879,0.0879 -0.15046,-0.0683 -0.13897,-0.34727 z m 0.52917,0 c 0.0127,-0.30822 0.0754,-0.37092 0.15985,-0.15985 0.0764,0.191 0.067,0.4192 -0.0209,0.50712 -0.0879,0.0879 -0.15045,-0.0683 -0.13896,-0.34727 z m 2.19412,0.0766 c -0.10075,-0.17554 -0.0858,-0.23091 0.0333,-0.12303 0.11908,0.10788 0.3763,0.0635 0.57159,-0.0985 0.22324,-0.18528 0.35507,-0.19493 0.35507,-0.026 0,0.41316 -0.75343,0.60747 -0.95999,0.24758 z m 2.08505,-0.58376 c 0.003,-0.58208 0.0571,-0.78905 0.1204,-0.45993 0.0633,0.32912 0.0609,0.80537 -0.005,1.05833 -0.0662,0.25297 -0.118,-0.0163 -0.11506,-0.5984 z m 0.78274,0.50249 c -0.18764,-0.20361 -0.22443,-0.37019 -0.0818,-0.37019 0.27475,0 0.6725,0.50329 0.51556,0.65237 -0.051,0.0484 -0.24616,-0.0786 -0.4338,-0.28218 z m 2.25761,0.12622 c -0.64345,-0.36009 -0.50847,-1.46979 0.17268,-1.41961 0.28957,0.0213 0.57713,0.19074 0.63904,0.37646 0.0788,0.23636 -0.0556,0.28431 -0.44791,0.1598 -0.41488,-0.13168 -0.56047,-0.0655 -0.56047,0.25464 0,0.31213 0.14731,0.38579 0.52917,0.26459 0.29104,-0.0924 0.52916,-0.0479 0.52916,0.0988 0,0.42566 -0.37098,0.53987 -0.86167,0.26527 z m -37.50291,-0.24013 c 0,-0.14096 0.1786,-0.25628 0.39688,-0.25628 0.21828,0 0.39687,0.0468 0.39687,0.10398 0,0.0572 -0.17859,0.17252 -0.39687,0.25628 -0.21828,0.0838 -0.39688,0.037 -0.39688,-0.10398 z m 5.29167,0.0331 c 0,-0.1319 0.23812,-0.17754 0.52917,-0.10143 0.29104,0.0761 0.52916,0.18402 0.52916,0.23981 0,0.0558 -0.23812,0.10143 -0.52916,0.10143 -0.29105,0 -0.52917,-0.10791 -0.52917,-0.23981 z m 20.52046,-10e-5 c -0.0816,-0.13195 0.09,-0.17759 0.38126,-0.10143 0.6178,0.16156 0.69589,0.34134 0.14827,0.34134 -0.20969,0 -0.44798,-0.10796 -0.52953,-0.23991 z m 14.07869,-0.0692 c 0.15375,-0.15375 0.43572,-0.22749 0.6266,-0.16386 0.19816,0.066 0.0782,0.18599 -0.27954,0.27955 -0.4401,0.11508 -0.5434,0.0806 -0.34706,-0.11569 z m -20.55535,-0.37435 c 0.0127,-0.30823 0.0754,-0.37092 0.15986,-0.15986 0.0764,0.191 0.067,0.4192 -0.0209,0.50712 -0.0879,0.0879 -0.15046,-0.0684 -0.13897,-0.34726 z m 1.85209,0 c 0.0127,-0.30823 0.0754,-0.37092 0.15985,-0.15986 0.0764,0.191 0.067,0.4192 -0.0209,0.50712 -0.0879,0.0879 -0.15045,-0.0684 -0.13896,-0.34726 z m 0.52916,0 c 0.0127,-0.30823 0.0754,-0.37092 0.15986,-0.15986 0.0764,0.191 0.067,0.4192 -0.0209,0.50712 -0.0879,0.0879 -0.15046,-0.0684 -0.13897,-0.34726 z m 14.81667,0 c 0.0127,-0.30823 0.0754,-0.37092 0.15985,-0.15986 0.0764,0.191 0.067,0.4192 -0.0209,0.50712 -0.0879,0.0879 -0.15045,-0.0684 -0.13896,-0.34726 z m -39.24537,-0.028 c -0.61374,-0.16039 -0.58898,-0.51671 0.0475,-0.68314 0.37847,-0.099 0.50076,-0.004 0.47286,0.36601 -0.0207,0.27474 -0.0421,0.4857 -0.0475,0.46882 -0.005,-0.0169 -0.21821,-0.0851 -0.47287,-0.15169 z m 8.46667,0 c -0.61375,-0.16039 -0.58899,-0.51671 0.0475,-0.68314 0.37847,-0.099 0.50076,-0.004 0.47286,0.36601 -0.0207,0.27474 -0.0421,0.4857 -0.0475,0.46882 -0.005,-0.0169 -0.2182,-0.0851 -0.47286,-0.15169 z m 8.69097,-0.0122 c -0.087,-0.087 -0.15633,-0.28715 -0.15411,-0.44479 0.002,-0.15765 0.11947,-0.10804 0.26054,0.11024 0.14106,0.21828 0.2583,0.26078 0.26053,0.0945 0.006,-0.42579 0.74357,-0.66084 0.9625,-0.3066 0.10999,0.17798 0.0611,0.21944 -0.12382,0.10512 -0.16801,-0.10383 -0.30546,-0.0754 -0.30546,0.0631 0,0.3093 -0.68243,0.59622 -0.90018,0.37847 z m 11.68195,0.0122 c -0.61375,-0.16039 -0.58899,-0.51671 0.0475,-0.68314 0.37848,-0.099 0.50076,-0.004 0.47287,0.36601 -0.0207,0.27474 -0.0421,0.4857 -0.0475,0.46882 -0.005,-0.0169 -0.2182,-0.0851 -0.47286,-0.15169 z m 6.2696,-0.10525 c -0.38202,-0.61813 0.33495,-0.78421 0.96408,-0.22333 l 0.63767,0.56849 -0.76855,-0.45856 c -0.68813,-0.41059 -0.75129,-0.4136 -0.60361,-0.0288 0.18667,0.48645 0.0395,0.57757 -0.22959,0.14216 z m 2.94024,-0.11765 c -0.28247,-0.21366 -0.38635,-0.38846 -0.23083,-0.38846 0.15551,0 0.43097,0.17859 0.61213,0.39687 0.41201,0.49644 0.2824,0.49358 -0.3813,-0.008 z M 4.99413,37.222582 c -0.27147,-0.43927 -0.0278,-0.50018 0.35204,-0.088 0.18764,0.20361 0.22444,0.37019 0.0818,0.37019 -0.14267,0 -0.33788,-0.12698 -0.43381,-0.28218 z m 5.43484,0.13443 c 0,-0.054 0.23813,-0.22565 0.52917,-0.38141 0.29234,-0.15646 0.52917,-0.17444 0.52917,-0.0402 0,0.13367 -0.23813,0.3053 -0.52917,0.38141 -0.29104,0.0761 -0.52917,0.0942 -0.52917,0.0402 z m 10.74555,-0.16524 c 0.0764,-0.12364 0.24977,-0.15631 0.38523,-0.0726 0.34618,0.21395 0.3072,0.29738 -0.13893,0.29738 -0.21188,0 -0.32272,-0.10116 -0.2463,-0.2248 z m 0.78084,-0.13862 c -0.14359,-0.37708 -0.1132,-0.40747 0.14811,-0.14811 0.18082,0.17948 0.26212,0.39297 0.18065,0.47443 -0.0815,0.0815 -0.2294,-0.0654 -0.32876,-0.32632 z m 6.46528,0.21534 c 0,-0.37483 0.75789,-0.56497 0.95845,-0.24046 0.10999,0.17798 0.0611,0.21944 -0.12382,0.10512 -0.16801,-0.10383 -0.30546,-0.0627 -0.30546,0.0914 0,0.15411 -0.11907,0.2802 -0.26459,0.2802 -0.14552,0 -0.26458,-0.10632 -0.26458,-0.23627 z m 10.45104,-0.29289 c 0.0899,-0.14552 0.21603,-0.26459 0.2802,-0.26459 0.0642,0 0.11667,0.11907 0.11667,0.26459 0,0.14552 -0.12608,0.26458 -0.28019,0.26458 -0.15411,0 -0.20662,-0.11906 -0.11668,-0.26458 z M 8.84147,32.096422 c 0,-0.22687 0.11906,-0.41249 0.26459,-0.41249 0.14552,0 0.26458,0.11204 0.26458,0.24897 0,0.13693 -0.11906,0.32255 -0.26458,0.41249 -0.14553,0.0899 -0.26459,-0.0221 -0.26459,-0.24897 z m 10.4658,0.14055 c -0.0818,-0.13239 -0.0901,-0.40028 -0.0184,-0.59531 0.0717,-0.19503 0.0175,-0.5322 -0.12042,-0.74927 -0.19973,-0.31431 -0.31767,-0.32778 -0.5793,-0.0661 -0.18069,0.18068 -0.5451,0.32851 -0.80981,0.32851 -0.50565,0 -0.49058,-0.4195 0.0798,-2.22229 0.38774,-1.22546 0.29293,-1.65553 -0.55104,-2.4995 -0.43656,-0.43656 -0.79375,-0.99066 -0.79375,-1.23133 0,-0.67298 1.45891,-1.98438 2.20758,-1.98438 0.51908,0 0.69818,-0.17022 0.83513,-0.79375 0.17636,-0.80298 0.66146,-1.10991 0.66146,-0.41851 0,0.20638 0.0686,0.55409 0.15252,0.7727 0.10419,0.27152 -0.0404,0.42509 -0.45626,0.48466 -0.49605,0.071 -0.70128,0.39764 -1.10841,1.7639 -0.59879,2.00942 -0.41365,2.36676 0.98677,1.90457 1.0115,-0.33382 2.02247,-1.39423 1.99791,-2.0956 -0.008,-0.23504 -0.34195,-1.41078 -0.7416,-2.61277 -0.4606,-1.38527 -0.63973,-2.30555 -0.48925,-2.51354 0.16333,-0.22574 0.19093,-0.18364 0.0884,0.13491 -0.096,0.2984 -0.0108,0.46302 0.23963,0.46302 0.21371,0 0.38857,-0.11104 0.38857,-0.24676 0,-0.37897 1.07678,-0.63438 1.38309,-0.32806 0.41386,0.41385 0.0256,1.51134 -0.64974,1.83683 -0.57173,0.27554 -0.55955,0.29055 0.24953,0.30758 0.58254,0.0123 0.93689,-0.14336 1.12448,-0.49387 0.46251,-0.86421 0.31026,-1.5438 -0.57975,-2.58787 -0.4695,-0.55077 -0.61832,-0.81479 -0.33073,-0.58672 0.48797,0.38696 0.58479,0.35616 1.44895,-0.46097 0.89619,-0.84742 0.90543,-0.87571 0.28663,-0.8777 -0.35167,-10e-4 -0.56553,-0.0759 -0.47524,-0.16621 0.2578,-0.25781 2.56986,0.1648 2.56986,0.46973 0,0.15023 -0.23812,0.33541 -0.52916,0.41152 -0.29105,0.0761 -0.52917,0.25744 -0.52917,0.40296 0,0.14552 0.23812,0.19117 0.52917,0.10144 0.29104,-0.0897 0.74549,-0.23087 1.00989,-0.31364 0.39739,-0.12439 0.55899,0.11642 0.93211,1.38907 0.24826,0.84675 0.6666,2.20057 0.92964,3.00849 l 0.47824,1.46895 -0.7489,-0.10992 c -0.7906,-0.11603 -1.05959,0.3767 -0.35355,0.64763 0.56918,0.21842 0.21564,0.62543 -0.54326,0.62543 -0.7652,0 -0.75678,0.0662 -0.22449,-1.76483 0.23175,-0.79717 0.37187,-1.49889 0.31138,-1.55938 -0.0605,-0.0605 -0.69408,-0.14095 -1.408,-0.17881 l -1.29804,-0.0688 -0.17996,1.19062 c -0.23068,1.52617 0.14844,3.01645 0.92221,3.62509 0.5968,0.46945 0.59887,0.48835 0.11003,1.00325 -0.41541,0.43755 -0.46889,0.44833 -0.32175,0.0649 0.12078,-0.31474 0.0472,-0.45989 -0.23309,-0.45989 -0.22526,0 -0.47624,0.10788 -0.55774,0.23974 -0.21029,0.34026 -1.1407,0.0474 -1.3181,-0.41488 -0.217,-0.56551 -0.68162,-0.16496 -0.68162,0.58763 0,0.35521 -0.12134,0.64584 -0.26963,0.64584 -0.15548,0 -0.19934,0.28002 -0.10361,0.66146 0.10229,0.40756 0.0534,0.66146 -0.12725,0.66146 -0.16129,0 -0.29326,0.40679 -0.29326,0.90399 0,0.97549 -0.38595,1.28293 -1.12995,0.9001 -0.6961,-0.35818 -1.04068,-0.006 -0.8489,0.86693 0.16033,0.72995 -0.18092,1.07639 -0.51994,0.52785 z M 8.343,31.242962 c -0.0169,-0.3153 -0.11999,-0.62321 -0.22913,-0.68424 -0.2482,-0.13881 0.15213,-0.0617 0.90836,0.17508 0.50213,0.15718 0.59171,0.0668 0.68527,-0.6913 0.0943,-0.76443 0.11285,-0.73213 0.14996,0.26168 0.039,1.0442 0.002,1.11214 -0.46943,0.85989 -0.68305,-0.36556 -0.75221,-0.35092 -0.89334,0.18913 -0.0944,0.36139 -0.12774,0.3372 -0.15169,-0.11024 z m -1.88278,-0.33717 c 0,-0.63885 0.14714,-0.7033 0.35701,-0.15638 0.082,0.21363 0.0352,0.45878 -0.10398,0.54479 -0.13917,0.086 -0.25303,-0.0888 -0.25303,-0.38841 z m 3.19589,-2.81578 c 0.0127,-0.30823 0.0754,-0.37092 0.15985,-0.15986 0.0764,0.191 0.067,0.4192 -0.0209,0.50712 -0.0879,0.0879 -0.15045,-0.0684 -0.13896,-0.34726 z m 15.66071,-0.2936 c 0.25743,-0.0671 0.61462,-0.0627 0.79375,0.01 0.17913,0.0725 -0.0315,0.12737 -0.46806,0.12197 -0.43656,-0.005 -0.58312,-0.0647 -0.32569,-0.13177 z m -11.65713,-2.35947 c -0.2876,-0.30988 -0.15126,-0.36759 0.86842,-0.36759 1.00709,0 1.24964,-0.0997 1.44887,-0.59532 0.23001,-0.57223 0.23993,-0.5671 0.25605,0.1323 0.0147,0.63578 -0.0834,0.7276 -0.77697,0.7276 -0.43657,0 -0.86974,-0.0102 -0.96261,-0.0226 -0.0929,-0.0124 -0.2417,0.0935 -0.33073,0.23531 -0.0972,0.15488 -0.29815,0.11106 -0.50303,-0.1097 z m 12.38526,-0.25129 c -0.36074,-0.35501 -0.51807,-0.64547 -0.34962,-0.64547 0.36627,0 1.13781,0.73046 1.13781,1.07723 0,0.32988 -0.0321,0.31229 -0.78819,-0.43176 z m -0.27014,-2.23297 c -0.23847,-0.15411 -0.27111,-0.2581 -0.0818,-0.26053 0.17332,-0.002 0.3887,0.11501 0.47864,0.26053 0.20302,0.32849 0.11142,0.32849 -0.39687,0 z m 7.721,-1.98438 c -0.0512,-0.99398 0.20433,-1.98437 0.51194,-1.98437 0.12855,0 0.23372,0.17859 0.23372,0.39688 0,0.21828 -0.11187,0.39687 -0.24861,0.39687 -0.13674,0 -0.29532,0.44648 -0.3524,0.99219 -0.0873,0.83445 -0.11028,0.866 -0.14465,0.19843 z m -13.80642,-0.13229 c 0,-0.14552 0.11906,-0.26458 0.26458,-0.26458 0.14552,0 0.26459,0.11906 0.26459,0.26458 0,0.14552 -0.11907,0.26459 -0.26459,0.26459 -0.14552,0 -0.26458,-0.11907 -0.26458,-0.26459 z m 17.48339,-0.6835 c 0.0127,-0.30823 0.0754,-0.37092 0.15985,-0.15986 0.0764,0.191 0.067,0.4192 -0.0209,0.50712 -0.0879,0.0879 -0.15045,-0.0684 -0.13896,-0.34726 z m -15.52415,-1.49931 -0.50403,-0.59531 0.59531,0.50403 c 0.55945,0.47366 0.71576,0.68659 0.50403,0.68659 -0.0502,0 -0.3181,-0.26789 -0.59531,-0.59531 z m 12.79128,0.12052 c -0.53939,-0.10854 -0.55542,-0.18109 -0.19059,-0.86278 0.36258,-0.6775 1.64058,-1.31561 2.5587,-1.27757 0.41851,0.0173 0.5457,0.0821 0.29239,0.14887 -0.2466,0.065 -0.38682,0.27855 -0.3116,0.47457 0.0764,0.19921 -0.0845,0.42662 -0.36489,0.51562 -0.27592,0.0876 -0.73101,0.36965 -1.01133,0.62684 -0.28031,0.25719 -0.71802,0.42569 -0.97268,0.37445 z m -12.82726,-1.82523 c 0.25743,-0.0671 0.61462,-0.0627 0.79375,0.01 0.17913,0.0725 -0.0315,0.12736 -0.46805,0.12197 -0.43657,-0.005 -0.58313,-0.0647 -0.3257,-0.13178 z m 16.33677,-0.72001 c 0.17135,-0.17135 0.35026,-0.17135 0.52161,0 0.17134,0.17135 0.0819,0.26081 -0.26081,0.26081 -0.3427,0 -0.43215,-0.0895 -0.2608,-0.26081 z"
         id="path10" /><path
         style="fill:#c9474d"
         d="m 3.05667,38.020572 c -0.0198,-0.37108 -0.17891,-0.81756 -0.35353,-0.99219 -0.24695,-0.24694 -0.15155,-0.3175 0.42927,-0.3175 0.5659,0 0.68098,0.0801 0.47514,0.33073 -0.14939,0.1819 -0.32635,0.62839 -0.39324,0.99219 l -0.12161,0.66146 z m 1.59021,-0.38365 c -0.018,-0.83915 0.0332,-0.96244 0.24704,-0.59531 0.34162,0.58654 0.77255,0.59884 0.77255,0.022 0,-0.62931 0.35647,-0.19002 0.45741,0.56368 0.0465,0.34753 -0.0373,0.70724 -0.1864,0.79936 -0.14905,0.0921 -0.27101,-0.0181 -0.27101,-0.24499 0,-0.56504 -0.72603,-0.52316 -0.87595,0.0505 -0.0666,0.25466 -0.13119,-0.0132 -0.14364,-0.59532 z m 2.17954,0.54463 c -0.28087,-0.73194 0.0224,-1.33736 0.69484,-1.38723 0.3825,-0.0284 0.46458,0.008 0.19573,0.0856 -0.25466,0.0739 -0.46302,0.236 -0.46302,0.36018 0,0.12418 0.20836,0.28023 0.46302,0.34678 0.44098,0.11524 0.44098,0.12246 0,0.15169 -0.25466,0.0169 -0.46302,0.14103 -0.46302,0.27588 0,0.13485 0.20836,0.29963 0.46302,0.36618 0.34376,0.0898 0.30755,0.12891 -0.14059,0.15169 -0.33199,0.0169 -0.66948,-0.14094 -0.74998,-0.35072 z m 3.36866,-0.47848 c -0.0267,-0.86383 0.0463,-0.99115 0.56462,-0.98414 0.57203,0.008 0.57508,0.0198 0.0779,0.30818 -0.51352,0.29787 -0.51352,0.30166 0,0.50252 0.41925,0.16399 0.43325,0.20592 0.0738,0.22099 -0.24399,0.0102 -0.49807,0.22696 -0.56462,0.48162 -0.0665,0.25466 -0.13481,0.0165 -0.15169,-0.52917 z m 1.88812,-0.0661 c 0.003,-0.58208 0.0571,-0.78905 0.1204,-0.45993 0.0633,0.32912 0.0609,0.80537 -0.005,1.05833 -0.0662,0.25297 -0.118,-0.0163 -0.11506,-0.5984 z m 1.0223,0.0661 c -0.0315,-1.0197 0.31153,-1.33181 0.60974,-0.5547 0.15135,0.39441 0.20541,0.3879 0.54906,-0.0661 0.35385,-0.46753 0.38178,-0.4325 0.38959,0.48856 0.008,0.99118 -0.40185,1.34531 -0.68965,0.59531 -0.20518,-0.53467 -0.55868,-0.5016 -0.70705,0.0662 -0.0665,0.25466 -0.13481,0.0165 -0.15169,-0.52917 z m 2.35056,-0.0661 c 0,-0.79304 0.0855,-0.92163 0.59531,-0.89535 0.44798,0.0231 0.48072,0.0606 0.13229,0.1517 -0.25466,0.0666 -0.46302,0.2226 -0.46302,0.34678 0,0.12418 0.20836,0.28023 0.46302,0.34678 0.44097,0.11524 0.44097,0.12246 0,0.15169 -0.66589,0.0441 -0.57084,0.50229 0.13229,0.63772 0.51042,0.0983 0.49156,0.1198 -0.13229,0.15069 -0.66202,0.0328 -0.7276,-0.0474 -0.7276,-0.89001 z m 3.22853,0.0925 c 0.36697,-1.05268 0.69604,-1.16912 1.00529,-0.35573 0.37717,0.99202 0.34839,1.05404 -0.50278,1.08382 -0.72978,0.0255 -0.75332,-0.009 -0.50251,-0.72809 z m 2.07118,-0.0447 c -0.007,-0.89856 0.058,-1.00122 0.58726,-0.92604 0.46773,0.0664 0.61327,0.28302 0.67908,1.01059 0.0774,0.85513 0.0549,0.88723 -0.29307,0.41921 -0.37129,-0.49938 -0.38115,-0.49938 -0.67103,0 -0.25349,0.43669 -0.29531,0.36698 -0.30224,-0.50376 z m 1.05029,-0.29671 c 0,-0.27926 -0.50777,-0.39659 -0.6588,-0.15223 -0.0914,0.1479 0.0194,0.2689 0.24631,0.2689 0.22686,0 0.41249,-0.0525 0.41249,-0.11667 z m 1.62353,0.63261 c -0.0198,-0.37108 -0.17891,-0.81756 -0.35353,-0.99219 -0.24695,-0.24694 -0.15156,-0.3175 0.42927,-0.3175 0.56589,0 0.68098,0.0801 0.47514,0.33073 -0.14939,0.1819 -0.32635,0.62839 -0.39324,0.99219 l -0.12161,0.66146 z m 1.40165,0.24947 c -0.12182,-0.19712 0.003,-0.23456 0.38127,-0.11446 0.63147,0.20042 0.78419,-0.2446 0.16542,-0.48204 -0.21828,-0.0838 -0.39687,-0.33463 -0.39687,-0.55748 0,-0.44958 0.67066,-0.55381 0.92416,-0.14362 0.0927,0.14998 -0.0135,0.19433 -0.24896,0.10398 -0.22584,-0.0867 -0.41062,-0.0396 -0.41062,0.10446 0,0.14412 0.2577,0.32943 0.57268,0.41179 0.4837,0.1265 0.51978,0.2135 0.23218,0.56003 -0.39811,0.4797 -0.96178,0.53394 -1.21926,0.11734 z m 3.18406,0.0147 c -0.13255,-0.21447 -0.0199,-0.25356 0.3722,-0.12911 0.30927,0.0982 0.56231,0.0653 0.56231,-0.0731 0,-0.13836 -0.23813,-0.31383 -0.52917,-0.38994 -0.29104,-0.0761 -0.52917,-0.27232 -0.52917,-0.43603 0,-0.45103 0.78738,-0.65817 1.14227,-0.30051 0.24158,0.24347 0.20736,0.27519 -0.15008,0.13912 -0.26828,-0.10214 -0.46302,-0.0531 -0.46302,0.11661 0,0.16109 0.18732,0.29289 0.41627,0.29289 0.55266,0 0.37807,0.89321 -0.1962,1.0038 -0.23943,0.0461 -0.52086,-0.0546 -0.62541,-0.22374 z m 2.30042,0.0459 c -0.19463,-0.12337 -0.3137,-0.5085 -0.26458,-0.85585 0.12777,-0.90368 1.37373,-0.90368 1.5015,0 0.0764,0.53996 -0.29911,1.08015 -0.75075,1.08015 -0.0728,0 -0.29154,-0.10094 -0.48617,-0.2243 z m 0.92648,-0.44684 c 0.22052,-0.57466 -0.33931,-1.11509 -0.74003,-0.71437 -0.33867,0.33867 -0.12886,1.12903 0.29972,1.12903 0.15465,0 0.35279,-0.18659 0.44031,-0.41466 z m 1.32358,0.50286 c -0.097,-0.097 -0.17639,-0.44147 -0.17639,-0.76545 0,-0.64052 0.73059,-1.07924 1.1308,-0.67903 0.15502,0.15503 0.0637,0.23296 -0.24268,0.20711 -0.32867,-0.0277 -0.49125,0.13367 -0.49125,0.48771 0,0.34024 0.1643,0.51622 0.46018,0.4929 0.25309,-0.0199 0.39489,0.0693 0.31511,0.19844 -0.17078,0.27633 -0.74418,0.30991 -0.99577,0.0583 z m 1.94028,-0.74966 c 0,-0.5708 0.10681,-0.89125 0.26458,-0.79375 0.14552,0.0899 0.26458,0.44713 0.26458,0.79375 0,0.34663 -0.11906,0.70382 -0.26458,0.79375 -0.15777,0.0975 -0.26458,-0.22294 -0.26458,-0.79375 z m 1.32291,0 c 0,-0.79304 0.0855,-0.92163 0.59531,-0.89535 0.44799,0.0231 0.48073,0.0606 0.1323,0.1517 -0.25467,0.0666 -0.46302,0.23133 -0.46302,0.36618 0,0.13485 0.20835,0.25355 0.46302,0.26378 0.3942,0.0158 0.38437,0.051 -0.0661,0.2368 -0.50416,0.20789 -0.49791,0.23123 0.13229,0.4938 l 0.66146,0.27559 -0.7276,0.0168 c -0.65836,0.0152 -0.72761,-0.0714 -0.72761,-0.90928 z m 2.38125,0.16996 c 0,-0.43302 -0.14883,-0.84737 -0.33073,-0.92077 -0.1819,-0.0734 -0.0239,-0.14285 0.35105,-0.15434 0.61093,-0.0187 0.66963,0.0619 0.56481,0.7761 -0.15683,1.06853 -0.58513,1.28739 -0.58513,0.29901 z m 2.05273,0.32165 c -0.0773,-0.27038 -0.23594,-0.72973 -0.35246,-1.02077 -0.17972,-0.44894 -0.15123,-0.47998 0.18795,-0.20473 0.30645,0.24869 0.47244,0.25177 0.71099,0.0132 0.40445,-0.40444 0.39284,-0.19567 -0.0473,0.85118 -0.29436,0.70006 -0.38371,0.76471 -0.49915,0.3611 z m 2.84394,0.17288 c -0.0927,-0.14998 0.0135,-0.19433 0.24896,-0.10398 0.54311,0.20841 0.5258,-0.15337 -0.0267,-0.55734 -0.47497,-0.34732 -0.28397,-0.92921 0.30501,-0.92921 0.2011,0 0.44711,0.13182 0.54669,0.29293 0.12308,0.19916 -0.0201,0.2362 -0.44741,0.11571 l -0.62845,-0.17722 0.63337,0.50944 c 0.35199,0.28313 0.55075,0.64312 0.4474,0.81034 -0.22885,0.37029 -0.86013,0.3933 -1.07889,0.0393 z m 2.01319,-0.61674 c -0.0274,-0.9012 0.0331,-1.00144 0.55877,-0.92604 0.46553,0.0668 0.60315,0.27923 0.6546,1.01059 0.052,0.73972 0.0106,0.83288 -0.20573,0.46302 -0.14898,-0.25466 -0.37529,-0.46302 -0.50291,-0.46302 -0.12762,0 -0.28649,0.20836 -0.35304,0.46302 -0.0666,0.25466 -0.13481,0.008 -0.15169,-0.54757 z m 0.89535,-0.44462 c -0.0899,-0.14552 -0.27556,-0.26458 -0.41249,-0.26458 -0.13693,0 -0.24897,0.11906 -0.24897,0.26458 0,0.14552 0.18562,0.26458 0.41249,0.26458 0.22687,0 0.33891,-0.11906 0.24897,-0.26458 z m 1.36701,1.14653 c -0.097,-0.097 -0.17639,-0.44147 -0.17639,-0.76545 0,-0.64052 0.7306,-1.07924 1.1308,-0.67903 0.15503,0.15503 0.0637,0.23296 -0.24268,0.20711 -0.32867,-0.0277 -0.49124,0.13367 -0.49124,0.48771 0,0.34024 0.1643,0.51622 0.46017,0.4929 0.2531,-0.0199 0.3949,0.0693 0.31512,0.19844 -0.17078,0.27633 -0.74418,0.30991 -0.99578,0.0583 z m 2.20766,-0.21712 c -0.62927,-0.75822 0.45699,-1.90887 1.13947,-1.20701 0.24324,0.25015 0.19509,0.30217 -0.21622,0.23357 -0.3822,-0.0637 -0.52917,0.0587 -0.52917,0.4409 0,0.36872 0.14844,0.50375 0.48957,0.44533 0.29387,-0.0503 0.41984,0.029 0.31512,0.19844 -0.24833,0.40179 -0.81677,0.34905 -1.19877,-0.11123 z m -2.36316,-3.99417 c 0.0127,-0.30822 0.0754,-0.37092 0.15986,-0.15985 0.0764,0.191 0.067,0.4192 -0.0209,0.50712 -0.0879,0.0879 -0.15046,-0.0683 -0.13897,-0.34727 z m 3.15411,0.0504 c 0,-0.49464 0.68285,-0.72768 1.51799,-0.51808 0.64457,0.16178 0.65522,0.19095 0.19299,0.52893 -0.6409,0.46864 -1.71098,0.46186 -1.71098,-0.0109 z m -21.43124,-2.80643 c 0,-0.86468 -0.0711,-0.91594 -0.75926,-0.54763 -0.73375,0.39269 -1.1947,-0.1078 -1.48549,-1.61291 -0.22446,-1.16182 -0.37745,-1.41663 -0.92759,-1.54491 -0.47112,-0.10985 -0.5602,-0.21454 -0.31269,-0.36751 0.19036,-0.11765 0.27982,-0.38664 0.1988,-0.59776 -0.081,-0.21112 -0.0482,-0.3226 0.0729,-0.24774 0.44567,0.27544 2.14692,-0.41183 2.67208,-1.07946 0.74175,-0.94298 0.68671,-1.3445 -0.0646,-0.47108 -0.54621,0.63501 -0.64046,0.66248 -0.95843,0.27934 -0.30338,-0.36555 -0.28035,-0.42493 0.1648,-0.42493 0.75534,0 0.92814,-0.29503 0.40312,-0.68828 -0.41012,-0.30718 -0.38858,-0.32862 0.20255,-0.20165 0.52069,0.11185 0.577,0.0818 0.26458,-0.1414 -0.34894,-0.24924 -0.34614,-0.28397 0.0232,-0.28753 0.2789,-0.003 0.5865,0.50718 0.91538,1.5173 0.27244,0.83675 0.58017,1.64146 0.68385,1.78825 0.15688,0.2221 1.02343,3.5987 1.02343,3.9879 0,0.0665 -0.31043,0.043 -0.68986,-0.0522 -0.77966,-0.19569 -1.23971,0.27209 -1.00606,1.02296 0.0792,0.25466 0.017,0.46302 -0.13833,0.46302 -0.15533,0 -0.28241,-0.35719 -0.28241,-0.79375 z m 4.01029,-2.85072 c -0.41041,-1.0499 -0.33869,-2.70553 0.11721,-2.70553 0.22671,0 0.37198,-0.28227 0.37446,-0.72761 0.003,-0.53578 0.067,-0.62814 0.24283,-0.35032 0.31474,0.49732 1.38049,0.64777 1.63793,0.23122 0.1117,-0.18073 0.28606,-0.24562 0.38747,-0.14421 0.10141,0.10141 0.0494,0.34704 -0.11561,0.54585 -0.38452,0.46331 -0.13081,0.70953 0.7317,0.71012 0.63254,4.3e-4 0.57499,0.0994 -0.7717,1.32761 -2.08598,1.90241 -2.26565,1.97919 -2.60429,1.11287 z m -6.22573,-2.82979 c 0.0902,-0.235 0.27729,-0.3895 0.41579,-0.34333 0.39646,0.13215 0.28274,0.591 -0.16983,0.68525 -0.2828,0.0589 -0.35907,-0.0471 -0.24596,-0.34192 z m 9.75797,-1.76476 c -2.36242,-1.00781 -2.89775,-1.57348 -2.81508,-2.97461 0.0349,-0.59172 0.1935,-1.1562 0.3524,-1.25441 0.15891,-0.0982 0.21027,-0.38352 0.11414,-0.63402 -0.13786,-0.35927 -0.0622,-0.42602 0.35832,-0.31606 0.29321,0.0767 0.5331,0.0502 0.5331,-0.0587 0,-0.10898 0.41748,-0.42298 0.92773,-0.69776 0.51026,-0.27479 0.88687,-0.62096 0.83691,-0.76927 -0.16169,-0.48009 1.34996,-0.94098 2.12268,-0.64719 0.4723,0.17957 0.78517,0.1765 0.97118,-0.01 0.39111,-0.39111 0.81763,-0.34263 0.49548,0.0563 -0.14689,0.1819 -0.35052,0.83674 -0.45253,1.4552 -0.18024,1.09284 -0.46643,1.40029 -0.80041,0.8599 -0.30261,-0.48964 -1.1749,-0.26996 -1.61893,0.40771 -0.63762,0.97313 -0.16779,1.85298 1.20989,2.26574 1.24341,0.37253 1.33108,0.74609 0.3948,1.68237 -0.37164,0.37163 -0.60782,0.78554 -0.52485,0.91978 0.34131,0.55225 -0.36603,0.45633 -2.10483,-0.28545 z m 3.83455,-1.28598 c 0,-0.14552 0.12609,-0.26459 0.2802,-0.26459 0.15411,0 0.20661,0.11907 0.11667,0.26459 -0.0899,0.14552 -0.21602,0.26458 -0.28019,0.26458 -0.0642,0 -0.11668,-0.11906 -0.11668,-0.26458 z"
         id="path9" /><path
         style="fill:#3048c0"
         d="m 9.03577,30.731572 c -0.0872,-0.0872 -0.85114,-0.21877 -1.69774,-0.29247 -0.8466,-0.0737 -1.5664,-0.1585 -1.59955,-0.18844 -0.0332,-0.0299 0.32527,-0.94138 0.79651,-2.0254 1.01464,-2.33402 1.88388,-3.35198 2.45648,-2.87677 0.68809,0.57107 0.40913,1.20936 -0.4712,1.07815 -0.10391,-0.0155 -0.11684,0.15967 -0.0288,0.38924 0.10621,0.27678 0.37794,0.37576 0.80661,0.29382 0.55319,-0.10575 0.62465,-0.0424 0.49538,0.43932 -0.0831,0.3096 -0.15269,1.18798 -0.15467,1.95197 -0.003,1.27142 -0.18713,1.64652 -0.60307,1.23058 z m 4.05167,-5.91353 c -0.21133,-0.13369 -0.47923,-0.18437 -0.59531,-0.11263 -0.11609,0.0717 -0.21107,-0.1147 -0.21107,-0.41433 0,-0.57136 -0.38187,-0.73259 -0.6619,-0.27948 -0.10894,0.17625 -0.33732,0.17252 -0.68044,-0.0111 -0.40313,-0.21575 -0.4589,-0.38399 -0.25411,-0.76664 0.37688,-0.7042 1.67136,-1.07505 3.75259,-1.07505 h 1.81261 v 0.77653 c 0,0.42708 -0.11612,1.08193 -0.25804,1.4552 -0.22185,0.58351 -0.41665,0.67812 -1.38906,0.67464 -0.62207,-0.002 -1.30394,-0.11344 -1.51527,-0.24713 z m 6.23994,-5.78545 c -0.58169,-2.07313 -0.56338,-2.41492 0.11979,-2.23627 0.30974,0.081 0.42974,0.2195 0.27372,0.31593 -0.18977,0.11728 -0.15592,0.62978 0.10678,1.61694 0.45212,1.69894 0.46465,1.84211 0.16117,1.84211 -0.12635,0 -0.424,-0.69242 -0.66146,-1.53871 z m 1.48391,0.20297 0.27189,-1.07116 0.64246,0.60355 c 0.63639,0.59786 0.6373,0.60585 0.0969,0.84701 -0.30008,0.1339 -0.5456,0.34432 -0.5456,0.46761 0,0.12328 -0.16594,0.22415 -0.36874,0.22415 -0.29932,0 -0.31756,-0.20167 -0.0969,-1.07116 z M 16.027,18.719222 c 0,-0.36381 0.06,-0.51263 0.13345,-0.33073 0.0734,0.1819 0.0734,0.47955 0,0.66146 -0.0734,0.1819 -0.13345,0.0331 -0.13345,-0.33073 z m 6.10653,-0.66146 c -0.45994,-0.29104 -0.84084,-0.6099 -0.84645,-0.70857 -0.0118,-0.2077 2.71752,-0.58706 3.16073,-0.43932 0.16352,0.0545 -0.10213,0.45415 -0.59035,0.88808 l -0.88767,0.78898 z m -1.65542,-0.53523 c -0.27961,-0.3369 -0.26324,-0.37562 0.0999,-0.23627 0.23886,0.0917 0.4343,0.27298 0.4343,0.40293 0,0.34024 -0.15316,0.29246 -0.5342,-0.16666 z"
         id="path8" /></g></g></svg>
